<svg xmlns="http://www.w3.org/2000/svg" viewBox="0 0 800 350"><title>banner</title><g id="Layer_2" data-name="Layer 2"><rect width="800" height="350" style="fill:#fff"/></g><g id="Layer_1" data-name="Layer 1"><path d="M287,165.3A100.21,100.21,0,0,1,186.83,265.51c-55.34,0-107.47-45.34-100.21-100.21,7.51-56.71,37.7-100.21,100.21-100.21C248.46,65.09,287,110,287,165.3Z" style="fill:#7c665d"/><path d="M142.76,189.19c-9.93-6.65-33.85-19.85-54.89-9.42A100.33,100.33,0,0,0,142.76,254V189.19Z" style="fill:#6e5550"/><path d="M230.89,189.19V254a100.33,100.33,0,0,0,54.89-74.21C264.75,169.34,240.82,182.54,230.89,189.19Z" style="fill:#6e5550"/><path d="M229.39,219.59l-1.77-11.24a50,50,0,0,0-96.27,0L130,215q-.31,2.3-.41,4.67l.12,6.84c.12,1.83.31,3.71.56,5.62l1.17,6.87c5.25,25.13,21.37,52.65,48.06,52.65S222.3,264.15,227.54,239l1.17-6.87c.25-1.91.44-3.79.56-5.62l.12-6.84Z" style="fill:#957863"/><path d="M204.92,240.89c0,21.15-9.85,38.3-24.56,38.3S155.8,262,155.8,240.89s9.85-38.3,24.56-38.3S204.92,219.74,204.92,240.89Z" style="fill:#c09682"/><path d="M179.92,245.43c8.33,0,17.21-9.85,23.31,0s-7.07,28.93-23.31,28.93-29.42-19.08-23.31-28.93S171.6,245.43,179.92,245.43Z" style="fill:#ebb4a0"/><path d="M274.6,222.25a96.06,96.06,0,0,0,6.06-10.31,60.66,60.66,0,0,1,8.35,3.59,3.58,3.58,0,1,0,3.36-6.32,67,67,0,0,0-8.72-3.81,94.74,94.74,0,0,0,7-36.46c0-28.49-7-43.51-18.3-65.65C253.26,66,206.18,62,186.83,62c-17.78,0-59.43,0-81.93,41.26q-1.6,2.94-3.15,5.72c-10.49,19-18.78,34-18.78,60a94.74,94.74,0,0,0,7,36.46,67.11,67.11,0,0,0-8.72,3.81,3.58,3.58,0,1,0,3.36,6.32A60.54,60.54,0,0,1,93,211.94a96.17,96.17,0,0,0,6.06,10.31c-7.43,4.62-14.13,10.24-18.95,16.62a3.58,3.58,0,1,0,5.71,4.32c4.37-5.77,10.57-10.91,17.46-15.13a110.25,110.25,0,0,0,7.74,8.87,123.12,123.12,0,0,0-16.7,20,3.58,3.58,0,1,0,5.93,4,116.35,116.35,0,0,1,15.89-19,140.82,140.82,0,0,0,22.27,16.52,3.59,3.59,0,0,0,.87.38,103.44,103.44,0,0,0,20.11,24.33c7.14,6.23,13.22,7.88,17.66,7.88a15.86,15.86,0,0,0,6.55-1.35,13.21,13.21,0,0,0,3.21-2.05,13.22,13.22,0,0,0,3.21,2.05,15.86,15.86,0,0,0,6.55,1.35c4.44,0,10.52-1.65,17.66-7.88a103.44,103.44,0,0,0,20.11-24.33,3.58,3.58,0,0,0,.87-.38,140.85,140.85,0,0,0,22.27-16.52,116.35,116.35,0,0,1,15.89,19,3.58,3.58,0,0,0,5.93-4,123.1,123.1,0,0,0-16.7-20,110,110,0,0,0,7.74-8.87c6.89,4.22,13.09,9.36,17.46,15.13a3.58,3.58,0,1,0,5.71-4.32C288.72,232.49,282,226.87,274.6,222.25Zm-165,2.26A91.08,91.08,0,0,1,123,219c.4,1.68,1,4.15,2,7.2a71.41,71.41,0,0,0-8.49,5.93C114.08,229.77,111.81,227.22,109.65,224.51Zm12,12.66a64.17,64.17,0,0,1,5.6-4c1.37,3.84,3.09,8.14,5.2,12.67A126.08,126.08,0,0,1,121.61,237.17Zm65.22,36.09c-6.06,0-16.08-7.71-20.62-15.87-1-1.75-2.27-4.6-2.15-7.18a3.59,3.59,0,0,0,0-.41,5.14,5.14,0,0,1,.71-2.18c1.64-2.65,3.08-3,4.39-3,2,0,4.46,1,7.1,2a43.23,43.23,0,0,0,7,2.29v6.44a3.58,3.58,0,0,0,7.16,0v-6.44a43.27,43.27,0,0,0,7-2.29c2.64-1,5.13-2,7.1-2,1.31,0,2.74.37,4.39,3a5,5,0,0,1,.66,1.76v.09a3.56,3.56,0,0,0,.1,1.11,15.41,15.41,0,0,1-2.16,6.81C202.91,265.55,192.89,273.26,186.83,273.26Zm54.42-27.39c2.11-4.53,3.82-8.83,5.2-12.67a64.36,64.36,0,0,1,5.6,4A125.8,125.8,0,0,1,241.25,245.88Zm16-13.69a71.34,71.34,0,0,0-8.49-5.93c.92-3.05,1.55-5.52,2-7.2A91.11,91.11,0,0,1,264,224.51C261.85,227.22,259.58,229.77,257.23,232.18Zm11.09-13.5c-12-6.25-25-9.88-34.93-9.88a3.58,3.58,0,1,0,0,7.16,50,50,0,0,1,10.38,1.24c-.32,1.33-.82,3.29-1.55,5.73a45.46,45.46,0,0,0-11.94-3.35,3.58,3.58,0,0,0-.94,7.1A39,39,0,0,1,240,229.76c-4.74,13.49-14,33.63-30.47,48-6.1,5.32-12.29,7.35-16.55,5.41-1.77-.8-2.59-2.09-2.59-2.71a3.54,3.54,0,0,0,0-.43c8.82-2,18.7-10.82,23.32-19.13,2.32-4.17,3.32-8.16,3-11.68.24-5.13.94-34.49-12.44-60a3.58,3.58,0,1,0-6.34,3.33c8.53,16.24,10.91,34.64,11.5,46a11.15,11.15,0,0,0-5-1.11c-3.34,0-6.58,1.28-9.73,2.52-2.85,1.12-5.54,2.19-7.91,2.19s-5.07-1.06-7.91-2.19c-3.14-1.24-6.39-2.52-9.73-2.52a11.13,11.13,0,0,0-5,1.15c.59-11.37,3-29.79,11.5-46a3.58,3.58,0,1,0-6.34-3.33c-13.9,26.48-12.6,57.14-12.41,60.46a20.9,20.9,0,0,0,3,11.19c4.62,8.3,14.5,17.12,23.32,19.13a3.54,3.54,0,0,0,0,.43c0,.62-.82,1.91-2.59,2.71-4.26,1.94-10.45-.09-16.55-5.41-16.44-14.34-25.73-34.48-30.47-48a38.93,38.93,0,0,1,10.68-3.09,3.58,3.58,0,1,0-.94-7.1,45.45,45.45,0,0,0-11.94,3.35c-.72-2.45-1.23-4.41-1.55-5.73A50,50,0,0,1,140.27,216a3.58,3.58,0,0,0,0-7.16c-9.9,0-22.94,3.64-34.93,9.88a90,90,0,0,1-5.33-8.86,163.67,163.67,0,0,1,33.17-4.61,3.58,3.58,0,0,0-.14-7.16,165.06,165.06,0,0,0-36.14,5.18A87.35,87.35,0,0,1,90.13,169c0-24.18,7.5-37.76,17.89-56.55,1-1.87,2.09-3.79,3.17-5.76,20.47-37.53,57.74-37.53,75.65-37.53s61.87,3.65,79.19,37.45C277.2,128.39,283.53,142,283.53,169a87.35,87.35,0,0,1-6.77,34.28c-17.19-4.75-35.15-5.16-36.14-5.18a3.58,3.58,0,0,0-.14,7.16,163.23,163.23,0,0,1,33.17,4.61A90.15,90.15,0,0,1,268.32,218.68Z"/><path d="M106.43,182.62a3.33,3.33,0,0,0-.76,6.62c8,.92,12.3,3.33,13.91,7.82a3.33,3.33,0,1,0,6.27-2.26C122.5,185.51,113.16,183.4,106.43,182.62Z"/><path d="M252.3,189.28a3.72,3.72,0,0,0,4.77-2.24c1.81-5,6.61-7.71,15.57-8.75a3.73,3.73,0,0,0-.85-7.4c-7.53.87-18,3.23-21.72,13.63A3.73,3.73,0,0,0,252.3,189.28Z"/><text transform="translate(370 211.16)" style="font-size:112px;font-family:SFProDisplay-Semibold, SF Pro Display;font-weight:700">FE<tspan x="123.87" y="0" style="letter-spacing:-0.041015625em">T</tspan><tspan x="185.83" y="0">CH</tspan></text></g></svg>